<?xml version="1.0" encoding="UTF-8"?>
<svg id="Layer_1" data-name="Layer 1" xmlns="http://www.w3.org/2000/svg" viewBox="0 0 500 500">
  <defs>
    <style>
      .cls-1 {
        fill: #221f1f;
        stroke-width: 0px;
      }
    </style>
  </defs>
  <path class="cls-1" d="m202.61,207.13c-23.64,0-42.87,19.23-42.87,42.87s19.23,42.87,42.87,42.87,42.87-19.23,42.87-42.87-19.23-42.87-42.87-42.87Zm0,70.29c-15.12,0-27.42-12.3-27.42-27.42s12.3-27.42,27.42-27.42,27.42,12.3,27.42,27.42-12.3,27.42-27.42,27.42Z"/>
  <path class="cls-1" d="m299.21,215.13c-21.87,0-41.05,18.39-41.05,39.36,0,18.74,15.73,30.38,41.05,30.38s41.05-11.64,41.05-30.38c0-20.97-19.18-39.36-41.05-39.36Zm-8.97,55.13c-8.49-1.34-18.14-5.18-18.14-15.77,0-7.64,4.71-15.86,12.13-20.82.26-.17.54.18.31.4-4.3,3.96-6.99,9.63-6.99,15.93,0,8.82,5.27,16.4,12.83,19.78.27.12.15.52-.14.48Zm17.93,0c-.29.05-.41-.36-.14-.48,7.56-3.38,12.83-10.96,12.83-19.78,0-6.3-2.7-11.98-6.99-15.93-.23-.21.05-.57.31-.4,7.43,4.96,12.13,13.17,12.13,20.82,0,10.59-9.65,14.43-18.14,15.77Z"/>
  <path class="cls-1" d="m209.86,237.03l-4.55-9.22c-1.11-2.24-4.3-2.24-5.4,0l-4.55,9.22c-.44.89-1.29,1.51-2.27,1.65l-10.17,1.48c-2.47.36-3.46,3.4-1.67,5.14l7.36,7.17c.71.69,1.03,1.69.87,2.67l-1.74,10.13c-.42,2.46,2.16,4.34,4.37,3.18l9.1-4.78c.88-.46,1.93-.46,2.8,0l9.1,4.78c2.21,1.16,4.79-.71,4.37-3.18l-1.74-10.13c-.17-.98.16-1.97.87-2.67l7.36-7.17c1.79-1.74.8-4.78-1.67-5.14l-10.17-1.48c-.98-.14-1.83-.76-2.27-1.65Z"/>
</svg>