<?xml version="1.0" encoding="UTF-8"?>
<svg id="Layer_1" data-name="Layer 1" xmlns="http://www.w3.org/2000/svg" viewBox="0 0 360 288">
  <defs>
    <style>
      .cls-1 {
        fill: #fbaf41;
      }

      .cls-1, .cls-2 {
        stroke: #231f20;
        stroke-miterlimit: 10;
        stroke-width: .15px;
      }

      .cls-2 {
        fill: #231f20;
      }
    </style>
  </defs>
  <polygon class="cls-1" points="98.65 70.39 84.3 110.92 84.3 149.52 121.35 225.96 168.3 248.17 222.3 240.04 259.09 209.13 280.65 156.81 284.13 138.63 284.13 99.17 263 51.96 228.57 94.48 196.09 110.65 153.7 112.22 125.26 79.26 98.65 70.39"/>
  <g>
    <path class="cls-2" d="m78.07,142.8c-.77-3.56.15-8.74,3.62-9.86,16.49-5.33,16.43,6.5,17.8,22.01.13,1.44,1.25,2.58,2.68,2.72,5.15.53,15.51,3.07,15.31,7.5,0,0,.75,3.01.53,5.09-1.08,9.98-7.05,8.12-13.1,7.53-1.99-.19.08,4.47.43,5.74.21.76.78,3.29,1.92,3.35,1.26.07,3.71-2.28,5-2.95,1.71-.87,3.63-1.32,5.52-1.02,8.49,1.31,5.86,9.73.82,15.54-1.28,1.48-1.67,3.53-1,5.37,1.98,5.37,6.73,12.25,10.82,16.72,6.99,7.62,15.44,12.42,23.62,14.67,23.9,6.55,46.96,7.04,61.95,1.88,12.54-3.92,25.51-14.4,28.64-18.41,3.13-4.01,4.66-4.63,2.45-7.31-4.92-5.96-15.47-13.41-6.62-19.8,1.77-1.28,4.05-1.57,6.05-.68,12.37,5.46,9.31,22.19,20.09-5.4.89-2.28-.18-4.89-2.44-5.82-9.04-3.73-15.66-2.25-12.15-15.2.71-2.63,3.26-4.35,5.93-3.93,1.46.23,3.72,1.18,3.72,1.18,0,0,4.41,1.61,6.51,2.68l3.4,1.73c.68.34,1.48.34,2.16-.01h0c.62-.33,1.08-.92,1.22-1.61,4.3-21.6-6.53-32.4,15.53-27.16,2.02.48,3.8,1.8,4.68,3.67,3.58,7.57-1.76,21.72-3.73,28.74-.43,1.54.37,3.46,1.76,4.25,3.15,1.8,5.42,2.96,7,3.7,1.79.84,2.77,2.79,2.34,4.72-.47,2.12-1.08,4.84-1.57,7.05-.58,2.59-3.16,4.25-5.74,3.64-7.71-1.82-11.69-8.68-15.51.92-1.27,3.18-2.65,6.32-4.35,9.29-8.42,14.66,15.31,3.42,1.26,21.47-1.43,1.84-3.85,2.68-6.08,2.01-9.67-2.91-5.9-7.11-17.11,5.37,0,0-.02.02-.03.03-24.07,19.77-58.02,29.59-88.91,22.58-22.37-6.19-47.23-17.15-59.26-38.16-1.13-1.97-3.8-2.35-5.44-.79-9.24,8.78-21.8,19.49-25.5.41-1.26-6.52,19.19-15.54,21.43-18.72,2.53-3.57-4.34-15.39-7.04-22.43-1.3-3.37-16.68-6.24-24.73-12.56-2.8-2.2-3.44-6.24-1.53-9.25,4.11-6.46,9.86-8.4,17.31-4.06.46.27,1.03-.11.97-.64l-.67-5.78Z"/>
    <path class="cls-2" d="m171.75,194.78c-13.88-9.59-25.86.91-11.66,10.17,3.28,2.14,6.31,4.66,8.98,7.54,2.37,2.57,4.75,4.82,8.3,5.43,2.93.5,5.85-1.02,7.2-3.66,1.12-2.19,2.05-4.75,2.61-6.44.49-1.47,1.01-2.93,1.58-4.37,1.93-4.9,4.79-12.57,5.27-18.09.21-2.45-1.06-4.78-3.25-5.91-10.38-5.41-10.78,10.3-16.45,15.22-.72.63-1.8.67-2.58.12Z"/>
    <path class="cls-2" d="m151.92,155.09c-8.38-10.61-20.64,9.41-7.33,12.85,4.2,1.08,8.53-1.63,9.07-5.93.15-1.16.08-2.41-.24-3.78-.27-1.14-.77-2.22-1.5-3.14Z"/>
    <path class="cls-2" d="m203.44,147.62c4.75-.75,8.98,2.11,10.8,6.74,2.76,7.02-4.46,14.03-11.39,11.05-1.75-.75-3.29-1.88-4.54-3.32-4.55-5.29-1.77-13.37,5.13-14.47Z"/>
    <path class="cls-2" d="m165.58,106.48c-7.21.58-14.25-2.45-18.76-8.11-10.05-12.63-28.88-29.39-35.89-39.49,0,0-3.13-5.22-11.35-5.61-8.24-.39-15.18.92-18.59,14.4-.54,2.13-.87,4.3-1.09,6.48-.5,5.05-1.58,16.03-1.58,16.03-.52,6.52-1.36,18.24-.65,23.61,1.25,9.28,4.07,16.09,11.44,15.17,5.16-.64,9.17-4.84,9.98-9.98l4.07-25.94c.11-.71.38-1.41.87-1.94,6.4-7,23.23,46.95,50.46,37,5.41-1.59,9.92-7.01,27.4-7.01,10.72,0,21.27,1.75,27.83,3.11,4.15.86,8.4-1.1,10.39-4.84,7.77-14.62,13.83-26.7,26.22-40.79,20.95-23.82,24.9,31.49,26.63,43.27,1.27,8.6,7.05,7.76,11.95,5.13,4.5-2.42,6.91-7.48,5.98-12.5-4.89-26.32-10.26-49.26-17.15-61.2-.72-1.8-1.74-3.31-2.97-4.57-5.56-5.69-14.97-4.89-19.99,1.28l-.33.41c-.95,1.17-1.77,2.27-2.59,3.38-5.85,7.96-13.72,16.32-19.47,24.64-2.26,3.27-4.62,6.46-7.2,9.48-1.43,1.68-3.01,3.57-4.56,5.46-4.75,5.8-11.42,9.7-18.8,11.04l-32.24,2.09Z"/>
  </g>
</svg>