<?xml version="1.0" encoding="UTF-8"?>
<svg id="Layer_1" data-name="Layer 1" xmlns="http://www.w3.org/2000/svg" viewBox="0 0 360 288">
  <defs>
    <style>
      .cls-1 {
        fill: #fff;
      }

      .cls-1, .cls-2 {
        stroke-width: 0px;
      }

      .cls-3 {
        stroke-width: .24px;
      }

      .cls-3, .cls-2, .cls-4 {
        fill: #231f20;
      }

      .cls-3, .cls-4 {
        stroke: #231f20;
        stroke-miterlimit: 10;
      }

      .cls-4 {
        stroke-width: .16px;
      }
    </style>
  </defs>
  <polygon class="cls-1" points="141.74 232.16 144.48 222.04 165.22 213.24 180 209.31 203.57 207.17 220.39 208.15 237.02 212.07 237.8 217.58 231.76 223.02 211.39 226.15 191.24 226.15 178.33 222.83 158.76 224 146.24 232.16 141.74 232.16"/>
  <g>
    <path class="cls-3" d="m181.86,185.3c-11.28,1.21-27.5-2.41-37.2,1.92-1.62.72-2.89,2.13-3.29,3.86-.5,2.17.71,2.89,3.05,3.72,1.21.43,2.48.64,3.77.64,4.41,0,11.35,0,14.85,0,7.3-.03,17.31-.14,24.7.68.31.03.6.09.91.16,2.48.52,6.62.73,9.3.23.6-.11,1.06-.57,1.2-1.16.16-.65.36-1.53.51-2.17s.01-1.27-.37-1.77c-2.72-3.58-8.2-5.12-12.78-5.96-1.54-.28-3.1-.32-4.65-.15Z"/>
    <g>
      <path class="cls-3" d="m155.53,49.94l-.24-.89c-.28-1.01-.93-1.88-1.85-2.39-.35-.19-.71-.37-1.08-.51-1.78-.68-3.77.24-4.43,2.03l-.03.07c-.78,2.12-.77,4.44.04,6.53l.03.09c1.46,3.81,4.34,6.97,8.09,8.58,1.77.76,3.72,1.31,5.88,1.44,4.72.27,10.15-.46,14.43-2.93,2.45-1.41,4.02-3.96,4.28-6.78.18-1.89.17-3.88.15-5.64-.01-1.07-.38-2.13-1.13-2.91-.9-.93-1.58-.73-3.01-.42-.92.2-1.76.7-2.34,1.44-.63.8-1.34,1.75-1.94,2.63-.92,1.34-2.28,2.33-3.86,2.73-2.41.61-5.48,1.11-7.65,1.39-1.06.14-2.15.03-3.13-.4-1.57-.7-1.55-1.65-2.22-4.06Z"/>
      <g>
        <g>
          <path class="cls-3" d="m153.76,77.29c-1.26.38-2.09.84-2.91,1.84-1.06,1.29-1.63,2.94-1.62,4.6.03,2.25.99,4.12,2.71,5.39,1.62,1.2,3.7,1.58,5.69,1.27.03,0,.07-.01.1-.02,1.75-.27,3.39-1.14,4.42-2.58.75-1.04,1.06-2.21,1.06-4.06s-.88-4.07-2.2-5.29c-.88-.82-1.73-1.28-3-1.5-1.42-.24-2.88-.07-4.26.35Z"/>
          <path class="cls-3" d="m185.76,78.47l-.7.26c-1.42.52-2.53,1.71-2.85,3.19-.53,2.41.05,4.94,1.52,6.94.85,1.16,2.22,1.82,3.65,1.82.02,0,.04,0,.06,0,1.2,0,2.34-.47,3.2-1.31,1.13-1.11,2.39-2.52,3.12-3.88.58-1.08.66-2.36.28-3.53-.82-2.46-2.87-2.85-5.41-3.58-.94-.27-1.94-.25-2.86.09Z"/>
        </g>
        <g>
          <path class="cls-2" d="m187.53,9.09c-3.64-.69-7.56,1-11.05,2.81-2,1.04-3.7,2.69-4.49,4.8-.26.69-.66,1.14-1.71,1.31-.82.14-1.64-.14-2.3-.64-3.4-2.56-7.2-4.17-11.55-4.32-.37-.01-.75.02-1.12.07h-.08c-6.23.94-11.86,4.22-15.73,9.19l-.07.09c-.81,1.03-2.14,1.5-3.42,1.19h-.05c-1.19-.3-2.29-.87-3.19-1.68-8.04-7.19-10.56-7.36-21.36-5.89-2.29.31-4.55.9-6.67,1.81-.39.17-.76.34-1.13.51-6.55,3.15-11.34,7.29-11.07,14.56v.09c.05,1.37-.6,2.67-1.76,3.36-2.81,1.67-6.65,2.57-10.09,3.52-3.2.89-6.41,2.28-8.56,4.81s-2.85,3.97-3.37,6.79c-.94,5,0,10.22,2.76,14.49,3.51,5.4,8.06,8.69,14.82,10.12,4.05.86,8.33.03,11.6-2.51.6-.47,1.12-.96,1.49-1.48.35-.48.97-.67,1.54-.53.26.06.54.13.83.2.93.22,1.42,1.25.99,2.11-1.13,2.27-1.27,4.84-1.24,7.36.02,1.46,0,2.93-.09,4.39-.29,4.23.62,8.54,2.19,12.64,3.57,9.38,10.57,17.06,19.34,21.95,3.19,1.78,6.48,3.39,9.46,4.9,1.62.82,2.49,2.61,2.16,4.39-.83,4.51-.41,5.64-4.47,7.38-3.61,1.54-6.91,3.75-9.73,6.48-3.08,2.99-6.06,6.47-8.53,9.72-2.04,2.69-2.99,6.1-2.38,9.42.23,1.24.65,2.4,1.33,3.72,1.07,2.06,3.6,2.99,5.73,2.04.59-.26,1.16-.57,1.71-.92,2.35-1.45,3.82-3.93,4.19-6.67.72-5.42,4.51-10.55,9.1-13.52,1.34-.86,3.15,0,3.31,1.59.15,1.46.14,3.2.08,4.8-.08,2.15-.05,4.32.13,6.46.11,1.22,0,2.11-.34,2.98-1.24,3.14-1.58,6.58-.57,9.81.38,1.22.82,2.34,1.44,3.41,1.82,3.09,5.63,4.39,9,3.18h.04c2-.73,3.14-2.84,2.66-4.91-1.04-4.55-1.86-9.15-2.12-13.81-.19-3.35-.5-6.95-.76-10.21-.14-1.85-.15-3.7-.15-5.55,0-.81-.07-1.71-.19-2.6-.75-5.6-.93-11.26-.85-16.91.02-1.17.01-2.3-.03-3.34-.69-5.97-1.43-7.03-6.11-7.54-1.91-.21-3.8-.61-5.6-1.28-2.77-1.04-4.64-2.24-6.78-4.36-1.47-1.45-3.04-2.8-4.6-4.16s-2.85-3.13-3.68-5.4c-.05-.1-.1-.21-.15-.33-2.39-5.24-4.17-10.74-5.26-16.39-.33-1.73-.63-3.43-.8-4.92-.08-.73.51-1.38,1.23-1.31.68.07,1.43.35,2.14.68,1.73.81,3.53,1.47,5.4,1.85h.07c1.89.4,3.81.45,5.69.13,4.74-.81,9.77-3.2,10.63-8.12.52-2.63.25-6.39.55-9-.02-2.54-1.66-3.89-3.72-4.79-.75-.32-1.56-.53-2.38-.55-2.06-.05-3.12.83-3.79,2.54-.42,1.09-.54,2.28-.42,3.45.25,2.55.59,4.85-1.2,6.49-.91.83-2.16,1.17-3.39,1.09s-2.64-.34-3.77-.69c-.7-.22-1.22-.81-1.33-1.54l-.09-.54c-.15-.91-.39-1.8-.78-2.64-.48-1.02-1.1-1.89-2.42-2.04-1.99-.9-3.34-.08-4.53,1.18-.91.96-2.24,1.44-3.52,1.12-.85-.22-1.24-.68-1.71-1.83s-1.54-2.08-2.8-2.25c-.44-.06-.89-.07-1.35-.06-2.02.04-3.9,1.1-5.03,2.78h0c-.85.41-2.21.93-3.63,1.32-2.27.64-4.7.44-6.85-.52-1.13-.5-2.35-1.07-3.46-1.67-1.73-.94-2.92-2.65-3.25-4.59-.15-.85-.26-1.74-.33-2.63-.23-3.06,1.05-6.09,3.55-7.87,1.78-1.26,3.86-2.1,5.99-2.27,4.2-.38,7.06.22,9.63,2.9,2,2.08,5.26,2.57,7.5.76.34-.27.65-.58.95-.92,1.34-1.54,1.37-3.8.27-5.52-2.83-4.4-1.33-9.78,3.39-13.98,1.52-1.35,3.52-1.88,5.96-2.25,3.46-.53,7.03-.21,10.29,1.05,3.06,1.18,7.05,7.1,9.52,8.7.87.56,1.75,1.08,2.7,1.49,2.56,1.11,4.16,1.21,4.98,3.85.48,1.55,1.62,2.8,3.17,3.3l.05.02c1.07.35,2.24.17,3.14-.5,1.42-1.06,2.9-2.35,4.12-3.7,1.33-1.47,1.49-3.75.18-5.24l-3.96-3.82c-.9-.83-1.4-2.01-1.38-3.23v-.06c.02-1.24.59-2.41,1.54-3.21.55-.46,1.14-.99,1.71-1.52,2.4-2.25,5.52-3.66,8.81-3.7,1.46-.01,2.87.25,4.09,1.01s1.91,2.03,2,3.41c.04.58-.06,1.01-.41,1.5-1.07,1.52-1.51,3.39-1.26,5.23v.09c.3,2.11,1.8,3.81,3.82,4.41,3,.89,6.75,1.25,9.61,1.18.4,0,.8-.09,1.17-.23h.01c1.48-.54,2.47-1.94,2.48-3.52,0-1.18-.21-2.35-1.1-2.98-2.86-2.05-3.4-8.22.16-10.42,3.23-2.47,7.44-3.18,11.37-2.29,1.11.15,2.2.39,3.21.76,3.01,1.09,4.61,4.39,3.75,7.48l-.02.06-.02.11c-.82,3.9,1.5,7.77,5.33,8.89l.38.11c2.91.85,6.01-.5,7.38-3.2s2.57-5.6,5.33-6.69c2.67-1.17,5.9-1.17,8.91-1.05,2.22.09,4.4.95,5.9,2.59.92,1.01,1.56,2.23,1.7,3.75-.41,1.73-1.03,4.02-.83,6.02.16,1.55,1.54,2.68,3.1,2.65h.12c2.98-.06,5.87-1.03,8.3-2.76.91-.65,1.2-.68,2.74-.22,8.76,2.65,6.95-1.52,10.51-5.05,1.02-1.02,2.48-1.51,3.9-1.29,1.84.28,3.51.8,5,1.6,3.95,2.12,6.54,7.75,5.95,12.2-.39,2.9-1.43,5.73-3.28,7.89-.6.7-1.32,1.29-2.07,1.82-.53.38-1.13.83-1.75,1.29-2.37,1.78-5.43,2.35-8.28,1.55l-.09-.03c-1.14-.32-2.23-.86-3.16-1.59-2.47-1.94-4.09-1.35-5.32.74-.85,1.45-1.18,3.14-1.13,4.82.12,3.93-1.14,4.34-3.68,4.68-2.38.32-4.66,1.15-6.66,2.48-1.05.7-2.18,1.27-3.42,1.49-.87.16-1.76-.21-2.3-.91l-.02-.03c-.33-.44-.52-.97-.5-1.52.06-2.11,1.05-2.96,2.66-3.77,1.45-.72,2.35-2.24,2.19-3.86-.12-1.26-.55-2.55-1.12-3.61-.38-.7-1.02-1.25-1.79-1.43-.54-.12-1.03-.08-1.53.07-1.56.46-3.21-.17-3.97-1.61-.17-.32-.39-.66-.73-1.04-1.61-1.78-4.14-2.38-6.46-1.75-1.43.39-2.93.93-4.06,1.5-.64.32-1.34.51-2.05.52-1.29.01-2.16-.03-3.05-.78-.74-.62-1.17-1.53-1.32-2.48-.35-2.17-.88-3.8-2.61-4.42-1.91-.68-4.08.34-4.86,2.22-.58,1.4-.81,3.14-.86,4.68-.06,1.63.25,3.27.96,4.74,3.46,7.15,10.6,5.39,17.85,4.13.53-.09,1.07-.04,1.57.16l.06.02c1.38.53,2.15,2.02,1.77,3.44-.06.22-.12.43-.19.64-.35,1.06-.57,2.18-.46,3.29.14,1.57.61,3.01,1.85,4.31,1.93,2.08,4.52,3.49,7.32,4.31,3.19.93,6.59.81,9.78-.09l.58-.16c2.62-.74,5.28,1.13,5.43,3.85.07,1.33,0,2.66-.05,3.62-.4,6.78-1.79,15.42-6.79,20.45-3.01,3.06-8.22,6.19-11.68,8.68-4.14,2.91-9.96,6.77-14.92,8.05-3.88,1.09-8.99.57-13.28.09-2.63-.29-5.21,1.15-6.16,3.62-.02.05-.04.1-.06.15-.78,2.16-.3,4.58,1.03,6.45l.08.12c1.29,1.8,3.51,2.7,5.68,2.28,1.39-.27,2.97-.55,4.33-.77,1.72-.29,3.39.7,3.99,2.33.37,1,.59,2.06.74,2.79.23,1.37.92,3.52,1.75,5.38s2.39,3.08,4.3,3.47c1.63.34,2.65.27,4.02-.32,2.6-1.12,4.07-4,3.41-6.76-.07-.3-.15-.59-.24-.89-.28-.9-.79-1.7-1.46-2.35-1.23-1.2-3.17-2.99-4.23-4.54-.71-1.03-.13-2.42,1.1-2.63,3.78-.64,7.87-2.53,11.81-4.38,7.29-3.43,13.85-8.31,19.03-14.5,2-2.39,3.74-4.88,4.9-7.45.33-.72.65-1.45.99-2.17,4.32-9.28,2.49-20.56.8-30.6-.42-2.47,1.3-4.78,3.79-5.1l.23-.03c8.2-1.05,15.27-6.56,17.87-14.41,1.11-3.36,1.55-6.95,1.1-10.7-.63-2.37-1.57-4.87-2.82-7.21-3.02-5.65-8.61-9.58-14.95-10.45-4.32-.59-7.05.61-12.08,4.87-2.57,1.91-2.8,3.62-5.12,2.84-1.01-.34-1.87-1.03-2.52-1.89-2.12-2.81-4.34-6.05-7.02-8.55-2.39-2.23-5.5-3.56-8.76-3.85-2.57-.23-5.36-.32-8.05-.16-3.42.2-6.73,1.43-9.43,3.54-.61.48-1.27.8-2.09.78-.87-.02-1.68-.46-2.26-1.11-3.87-5.36-9.38-7.62-15.71-8.33Z"/>
          <path class="cls-2" d="m291.11,160.36c-2.81-8.75-8.64-7.82-15.91-8.23-1.02-.06-2.04-.06-3.06-.04-1.69.04-4.25.11-6.38.17-2.6.07-5.18.42-7.71,1.06-5.88,1.49-12.97,3.32-18.85,3.17-1.7-.04-3.34-.58-4.84-1.38-4.88-2.62-9.61-2.99-15.14-3.24-4.3-.2-12.78-.49-17.48-.03-5.89.58-13.96.62-19.17,3.62-1.86,1.07-3.18,1.42-4.5,2.35-7.93,5.58-8.31,17.67-.65,23.63.04.03.08.06.12.09,3.86,2.96,27.01,3.2,35.26,2.95s16.42-3.58,16.42-3.58c1.81-.39,4.37-2.37,6.76-3.7,1.73-.96,3.67-1.46,5.65-1.46.98,0,1.8,0,1.8,0,12.42.03,27.25.32,39.76-1.7,1.14-.18,2.23-.6,3.22-1.2l.11-.07c4.19-2.53,6.11-7.61,4.64-12.28l-.04-.12Zm-66.09,12.91c-9.25,3.39-20.07,2.33-29.76,2.7-2.44.09-4.9-.26-7.15-1.21-1.73-.73-2.85-1.62-3.4-3.29-.89-2.7.5-5.61,3.01-6.93,2.1-1.1,4.53-2,6.23-2.28,9.09-1.91,20.35-2.01,29.58-.95,0,0,1.28.22,2.6.45,2.05.35,3.69,2.02,3.85,4.09.01.18.02.36.02.53.04,3.11-2.06,5.82-4.98,6.89Z"/>
          <path class="cls-2" d="m238.28,134.82c-.68-1.21-1.45-2.45-2.27-3.56-1.25-1.67-2.99-2.94-5-3.49-.95-.26-1.86-.34-2.9-.21-1.61.2-2.89,1.47-3.17,3.06-.26,1.5-.12,2.86.29,4.42.27,1.06.66,2.07,1.1,3.07,1.36,3.08,3.3,6.55,4.89,9.65.94,1.83,2.33,3.38,4.05,4.51.57.38,1.15.75,1.7,1.1,1.29.82,2.87,1.05,4.32.57.96-.31,1.8-.67,2.58-1.18,1.94-1.26,2.58-3.8,1.65-5.91-1.11-2.53-2.67-5.11-4.27-7.31-1.1-1.51-2.06-3.1-2.96-4.72Z"/>
        </g>
      </g>
    </g>
  </g>
  <path class="cls-4" d="m253.6,226.28c-.27-.72-.62-1.41-1.01-2.08-1.19-2.03-3.07-4.67-4.64-6.17-3.14-2.99-7.39-7.04-11.52-8.57-9-3.48-21.35-4.27-30.97-4.42-16.11-.34-34.34,1.53-49.43,7.44-3.51,1.32-7.9,3.44-11.66,5.57-2.32,1.32-4.23,3.26-5.53,5.6l-.05.09c-1,1.8-1.76,3.72-2.27,5.71h0c-1.24,4.9-.29,10.1,2.6,14.25,1.46,2.09,2.95,4.15,4.13,5.92,8.36,12.22,12.47,16.6,26.4,23.38,15.42,7.5,33.75,7.31,48.8.63,12.32-5.46,20.56-13.24,28.72-25,4.34-6.25,9.65-13.73,6.43-22.37Zm-109.12,1.51c.55-8.47,24.77-12.14,31.35-14.54,7.07-1.92,15.63-2.24,23.2-2.95,1.61-.15,3.24-.13,4.84.09,3.86.52,9.8.35,13.1.72.61.07,1.21.18,1.81.3,4.69.94,11.44.97,14.91,3.59l.03.02c1.44,1.09,1.18,3.32-.47,4.07-3.06,1.39-7.27,2.32-10.57,2.97-1.07.21-2.16.33-3.25.38-11.15.54-24.04,2.25-34.71-1.4-.78-.27-1.58-.5-2.4-.65-11.08-1.96-16.67-2.23-27.23,2.58-.64.29-1.27.62-1.88.96-.56.31-1.29.72-2.02,1.12-1.73.96-3.31,2.17-4.7,3.59h0c-.31.32-.78.44-1.21.29h0c-.5-.17-.84-.65-.81-1.17Zm97.5,17.76c-.85,2.17-2.78,5.38-4.35,6.81-2.66,3.81-8.12,6.89-11.87,9.48-5.23,4.3-12.14,6.88-19.06,8.58-8.62,2.12-17.71,1.85-26.05-1.21-1.13-.42-2.19-.86-3.13-1.34-10.93-3.02-22.72-9.73-28.15-20.1-.41-.79.27-1.71,1.14-1.55,2.61.47,6.02,1,8.48,1.29.87.1,1.73.3,2.56.61,6.33,2.35,15.04,4.75,21.45,5.5,12.4,2.19,27.26-.22,39.25-3.58,5.26-1.1,12.8-4.38,18.66-6.38.81-.27,1.57.51,1.28,1.32l-.21.57Zm6.18-15.17c-.27.68-.72,1.41-1.27,2.14-2.1,2.76-5.12,4.67-8.47,5.58-4.72,1.28-11.59,3.05-14.62,3.87-3.36.86-9.52,2.46-13.8,3.56-1.62.42-3.27.71-4.94.86-5.98.51-13.22.45-19.17,0-1.53-.11-3.03-.4-4.52-.78-10.32-2.69-22.18-4.43-31.74-8.96-.78-.37-1.16-1.3-.83-2.09,1.98-4.73,12.02-6.1,18.08-7.51,2.18-.51,4.42-.64,6.64-.31,5.46.81,11.79,2.11,17.02,3.43,1.9.48,3.86.67,5.82.59,3.49-.15,8.69-.36,8.69-.36,4-.46,11.6-1.69,16.32-2.58,1.16-.22,2.33-.36,3.51-.44,6.38-.4,18.09-1.07,14.61-8.56-.37-.79.52-1.56,1.25-1.09.61.4,1.2,1.14,1.75,1.46,3.81,2.69,6.39,6.35,5.69,11.2Z"/>
</svg>