<?xml version="1.0" encoding="UTF-8"?>
<svg id="Layer_1" data-name="Layer 1" xmlns="http://www.w3.org/2000/svg" viewBox="0 0 360 288">
  <defs>
    <style>
      .cls-1 {
        fill: #ed1c24;
        stroke: #ed1c24;
      }

      .cls-1, .cls-2 {
        stroke-miterlimit: 10;
        stroke-width: .15px;
      }

      .cls-2 {
        fill: #231f20;
        stroke: #231f20;
      }
    </style>
  </defs>
  <path class="cls-1" d="m93.87,113.55c-8.7-.91-17.54,1.55-23.87,7.59-20.13,19.18-3.17,59.19,28.15,60.54,61.85,2.83,39.55-63.53-4.27-68.12Z"/>
  <path class="cls-2" d="m203.77,116.47c-16.93-2.89-32.02.38-50.52-1.76-.19-.02-.39-.04-.58-.05-19.86-.85-13.84,24.17,3.43,20.37.45-.1.9-.16,1.36-.19,6.37-.45,16.4-5.35,20.82.1.84,1.03,1.3,2.32,1.46,3.64,1.6,13.63-.39,28.06,3.79,41.22.17.52.39,1.04.67,1.51,6.66,11,16.71.04,18.59-9.23.36-1.78,1.12-5.09,1.35-6.9.61-4.62,1.19-6.66-1.24-10.65-16.77-30.98,8.47-9.47,24.23-19.14,6.24-3.6,5.53-9.46,1.91-13.89-3.36-4.12-8.7-6.1-13.99-5.54l-6.78.71c-1.5.16-3,.07-4.49-.18Z"/>
  <path class="cls-2" d="m247.33,110.97c9.98,4.11,10.29,22.33,14.96,33.2,1.55,3.62,6.67,3.72,8.42.19,5.11-10.3,4.35-38.16,15.81-42.06.38-.13.8-.19,1.2-.2,26.6-.88-3.4,36.64-3.95,50.11.91,26.3-24.53,53.24-31,13.35-.02-.14-.04-.28-.04-.43-.89-15.81-27.17-44.09-9.28-53.96,1.18-.65,2.62-.73,3.87-.21Z"/>
</svg>