<?xml version="1.0" encoding="UTF-8"?>
<svg id="Layer_1" data-name="Layer 1" xmlns="http://www.w3.org/2000/svg" viewBox="0 0 252 144">
  <defs>
    <style>
      .cls-1 {
        fill: #fff;
        stroke: #fff;
        stroke-miterlimit: 10;
        stroke-width: .38px;
      }
    </style>
  </defs>
  <path class="cls-1" d="m199.7,10.97c1.39,6.01-16.64,33.57-9.73,34.79,10.57,2.56,10.01,3.01,13.66-7.7,3.62-8.18,7.93-15.69,11.92-23.53.48-.66.42-1.43.07-2.11-.68-1.33-2.31-1.8-3.72-1.32s-3.1-.45-4.6-.6c-1.2-.08-2.79-.42-3.23-1.47-.33-.79-1.07-1.32-1.91-1.18-.19.03-.37.07-.54.11-1.34.33-2.22,1.68-1.9,3.02Zm7.94,3.68c.89.19,2.39-.26,3.22-.01,2.31.68-.96,3.93-1.78,5.45-2.06,3.83-3.52,8.08-5.79,11.8-.64,1.04-1.22,2.11-1.67,3.24-1.03,2.54-2.1,5.35-3.81,7.26-.55.61-1.38.9-2.2.85-2.63-.16-5.21-.95-3.68-4.17,1.72-3.68,4.02-7.35,5.76-11.17.73-1.61,1.29-3.31,1.5-5.06.35-2.9,2.53-5.17,3.03-7.91.79-3.56,4.54-.47,5.43-.27Z"/>
  <path class="cls-1" d="m225.14,36.13c-.87.59-1.8,1.07-2.76,1.52-1.32.62-2.63,1.45-3.81,2.68-1.96,2.05-5.95,2.23-8.14,4.21-.54.49-.83,1.2-.88,1.93-.09,1.63.37,3.09.88,4.51.14.38.25.78.35,1.17.75,2.96,1.98,5.89,5.04,5.34.85-.15,1.61-.6,2.28-1.13,10.28-8.19,25.43-4.39,26.6-9.9.24-1.12-.28-2.3-1.24-2.93s-1.52-1.54-1.94-2.6c-.31-.79-.74-1.52-1.22-2.22-.39-.57-.43-1.37-.48-2.19-.08-1.32-.78-2.53-1.89-3.26-.8-.54-1.36-1.42-2.05-2.06-.84-.79-2.14-.85-3.1-.2l-7.67,5.14Zm.78,12.11c-1.39.25-2.73.71-3.91,1.48-2.14,1.41-4.33,3.17-6.34,2.54-.54-.17-.84-.72-.83-1.28.02-1.92-2.6-5.28.44-5.88,2.76-.54,4.59-2.59,6.84-3.69.68-.33,1.34-.71,1.94-1.18,1.52-1.19,3.82-1.35,5.08-2.96,1.3-1.48,3.56-1.16,5.09-2.17.65-.43,1.55-.19,1.9.51,0,.01.01.03.02.04.4.82.55,1.74.54,2.66-.01,1.9,1.49,3.72,2.27,5.39.41.89-.12,1.94-1.08,2.13l-11.95,2.41Z"/>
  <path class="cls-1" d="m141.75,131.21c2.97.67,5.63-2.04,5.21-5.06,0,0,0-.01,0-.02-.58-4.18.88-8.63,1.19-12.86.09-1.2-.26-2.4-.93-3.39-.39-.57-.79-1.12-1.2-1.66-.96-1.23-2.17-2.24-3.52-3.01-2.19-1.24-4.11-3.46-.39-2.37.26.08.54.09.79,0,.66-.23,1.6-.35,2.41-.39.57-.03,1.05-.45,1.14-1.02.36-2.31.98-5.22.38-7.37-.03-.11-.05-.22-.05-.33.11-4.91,1.87-10.52,1.44-15.28-.07-.77-.77-1.33-1.53-1.2-5.24.88-13.21,14.24-13.76,6.12.11-8.27,1.68-16.6,2.25-24.7.12-1.69.44-3.37.87-5.01,2.52-9.62,3.04-19.71-10.89-16.37-.13.03-.27.04-.4.03-1.84-.14-3.86-.46-4.91,1.3-1.44,2.4-2.27,3.68-.85,5.75.18.26.28.56.28.87-.16,10.04-2.23,20.72-2.31,30.84-.13,2.84,1.71,16.94-.83,14.18-1.65-2.16-3.97-4.94-6.6-2.42-1.3,2.64,1.5,3.3,3.48,3.92.3.09.55.29.71.55.52.88,1.22,1.91,2.06,2.48.27.18.45.48.54.79,2.9,9.99,3.9,19.81-4.9,27.19-2.66,3.98-14.82,8.34-18.73,5.43-6.75-4.49-14.58-9.47-12.37-18.83.76-4.02,1.87-8.39,2.9-12.56.3-1.21.89-2.33,1.72-3.26,3.15-3.54,6.58-8.08,11.65-8.11,5.01-.64,6.75,1.51,8.67,4.78.59,1.01,2.18.86,2.45-.28.48-2-1.14-5.46-2.63-6.24-5.82-4.27-12.99-.7-18.48,2.6-1.01.61-1.92,1.38-2.68,2.29-1.78,2.12-1.8,2.72-2.97.41-.61-1.2-1.34-2.34-2.17-3.4-3.52-4.53-5.32-8.29-10.55-10.14-1.7-.6-3.54-.69-5.31-.32-9.24,1.94-18.46,3.04-26.74-1.95-5.18-1.09-2.88-8.21.29-10.66.18-.14.39-.24.62-.24.86,0,1.81-1.31,2.85-1.53.3-.06.6.05.87.2,1.37.77,2.86.44,3.98,1.85,1.51,2.26,2.15,5.07,2.4,7.77.02.17.06.35.15.5,1.92,3.43,6.59,4.81,9.84,2.37,1.31-.19,2.74-1.1,3.97-1.74.25-.13.54-.22.83-.16.75.14,1.61-.21,2.26-.67.32-.22.49-.6.48-.99-.04-2.44.05-6.84-3.15-5.68-.74.04-.69.88-.62,1.49.02.16.02.33-.03.49-.56,1.78-3.6,2.16-5.05,3.25-3.34,2.3-3.69-4.16-5.76-5.67-1.42-2.98-3.97-5.64-6.88-7.28-.25-.14-.54-.21-.83-.19-6.05.23-10.11,1.32-11.48,7.37-.23,1.03-.53,2.05-.85,3.06-1.92,6.18,3.76,10.55,9.65,11.64,1.38.25,2.73.61,4.04,1.11,6.98,2.63,14.55.56,21.67-.16,1.43-.14,2.9.16,4.07,1,3.22,2.3,5.51,6.35,8.36,9.09.11.1.2.23.26.37,1.64,3.75-.47,7.69-1.87,11.17-1.35,3.72-1.18,8.23-1.29,12.15,0,.1-.02.19-.04.28-2.47,8.83-12.1,16.33-21.15,18.59-.11.03-.22.04-.33.04-9.94-.2-20.74-.11-29.47-5.24-.14-.08-.25-.18-.36-.3-3.19-3.77-9.55-6.06-10.58-11.21-.16-.79.38-1.55,1.18-1.62,1.03-.08,2.01-.14,2.57-1.39.13-.29.38-.49.67-.61,2.69-1.18,5.19-3.7,7.28-5.94,2.23-.3.72,1.27,1.7,2.41,2.63,1.96,5.98,4.57,9.7,4.86,5.87,1.32,11.38,4.73,17.42,5.17.2.01.41,0,.61-.07,13.39-4.22,10.85-25.75-1.25-30.04-4.32-1.6-8.59-3.53-13.37-3.17-.07,0-.14.02-.21.04-7.25,1.86-16.07.82-20.97-4.94-3.5-2.8-4.36-8.07-5.63-12.28-.02-.08-.04-.16-.05-.24-.25-3.35,2.08-5.92,3.86-8.49,5.13-7.61,14.8-14.61,24.47-14.68,3.72-.03,7.29,1.48,10.03,3.99,1.14,1.04,2.48,1.99,3.64,2.98.75.64,1.33,1.44,1.77,2.33.81,1.65,2.2,3.44,2.88,4.96.01.03.02.06.03.1.08.28.15.65.24,1.05.38,1.66,2.98,1.14,2.59-.51-.11-.46-.19-.97-.41-1.39-.37-.7-.56-1.49-.73-2.27-.63-2.94-3.43-4.94-5.46-7.08-.03-.03-.06-.07-.09-.1-10.22-13.2-27.74-5.59-37.84,3.47-5.09,4.82-11.42,12.18-8.95,19.63.33,1.01.61,2.04.81,3.08,1.33,6.87,8.48,10.99,14.41,13.99.07.03.13.06.21.08,10.3,3.11,23.61-2.82,31.89,6.61,3.14,3.14,2.48,8.37,2.38,12.43-1.11,8.65-11.95,6.25-17.76,3.08-.78-.43-1.64-.71-2.53-.78-8.62-.75-8.15-6.23-12.5-8.13-.48-.21-1.04-.1-1.42.26-2.92,2.69-6.93,4.66-9.44,7.51-.28.32-.68.45-1.11.42-1.28-.07-2.71,1.24-3.96,1.37-1.35-.04-2.29,1.07-2.46,2.56-.25,2.2,2.71,4.47,3.46,6.5.05.14.11.27.2.38,8.18,10.53,21.83,16.25,35.4,15.31.56-.04,1.12-.06,1.69-.06,5.96.03,12.16-.44,16.69-4.57.62-.56,1.31-1.04,2.02-1.47,9.54-5.69,8.44-14.79,11.51-8.41.49,1.01,1.17,1.94,1.97,2.73,9.5,9.46,17.67,10.57,28.84,6.31,4.44-1.7,11.21-17,9.21-4.53-.02.15-.07.31-.13.46-3.12,8.21,10.69,10.61,13.62,3.94.88-.86.42-3.52.33-5.46-.05-1.13,1.29-1.77,2.16-1.04,1.9,1.61,3.91,3.39,4.88,5.56.26.58.78.98,1.36,1.25.45.19.88.33,1.3.42Zm2.74-14.09s-.1,4.39-1.66,6.26c-.12.14-.27.25-.43.34-2.91,1.5-4.12-2.58-6.61-3.47-.29-.1-.52-.34-.66-.62-1.81-3.59-7.69-12.12-8.45-4.06-.72,3.99,2.23,7.43,1.98,11.39-.28,2.12-1.88,2.45-3.36,1.84-1.64-.68-2.57-2.42-2.52-4.2.16-5.78-1.13-11.68.23-17.32,1.32-3.61-1.71-4.49-.89-11.81,0-.05,0-.1,0-.14-.1-12.84-1.2-25.98.47-38.68.63-7.81-1.39-18.84,9.56-14.74.6.22.95.83.87,1.47-.68,5-.5,10.19-1.81,15.05-.57,2.1-.87,4.26-1.05,6.43-.69,7.98-2.57,16.44-2.64,23.35.18,2.41-1.04,5.95,2.78,6.17,3.14.18,2.44-2.21,3.99-3.44,2-1.45,3.93-3.26,6.27-4.69.95-.6,3.84-4.42,3.44-1.2-.36,2.83-.23,4.86-.74,7.18-.16.74-.23,1.49-.32,2.25-.22,2.05-1.42,3.92-3.1,4.32-.28.07-.53.22-.71.45-1.17,1.54-3.54,1.05-4.78,2.33-.12.12-.21.28-.27.44-1.46,3.53,1.03,4.42,3.94,4.93.25.04.48.15.67.31,1.57,1.42,2.61,3.5,4.12,4.85.24.21.56.25.88.27,1.4.08.79,4.72.79,4.72Z"/>
  <path class="cls-1" d="m98.01,101.79c.72-1.1.17-2.63-1.11-2.92-5.11-1.16-9.91,12.85-4.83,17.49,1.21,1.4,2.97,2.19,4.88,2.5,3.44.55,6.91-.84,9.25-3.42.79-.87,1.57-1.76,2.3-2.65.13-.16.25-.34.34-.52,2.46-4.81,2.67-13.31-2.61-15.65-.96-.42-2.11-.36-2.91.32-.97.83-.33,1.72.65,2.64,1.88,1.79,2.71,4.42,2.21,6.97-.47,2.39-1.5,4.65-3.51,6.08-2.4,2.29-5.27,1.83-7,.08s-1.84-4.52-.5-6.56l2.84-4.34Z"/>
  <path class="cls-1" d="m184.23,78.12c-4.03.15-11.47,6.34-11.47,6.34,0,0-2.56,2.64-3.3.55-4.97-13.88,1.55-29.33,2.63-44.01,1.64-5.53-2.47-9.14-7.65-8.69-.69.06-1.38.14-2.08.13-4.27-.06-10.52-1.21-9.8,4.8,1.82,7.4-.36,16.56-.99,24.17-.12,12.49-2.35,25.55-1.19,38.04.55,10.7-3.71,22.78,2.09,32.49,2.94,3.67,11.47,3.37,13.66-1.08,1.46-1.72-2.69-11.74,2.15-6.18,2.58,2.79,6.38,5.45,9.51,7.6,2.96,2.03,4.95,1.87,6.16-1.3,1.61-4.2-2.57-9.69.11-17.52.52-1.53.08-3.23-1.18-4.25-1.58-1.29-3.79-2.36-5.11-3.9-.92-1.06-.28-2.73,1.09-3.01,1.02-.21,2.02-.47,2.88.01.75.42,1.75.21,2.2-.52,1.96-3.19-.25-9.32.87-12.84,0,0,.56-2.99,1.27-4.27.59-1.05.84-2.27.63-3.46-.23-1.27-.85-2.67-2.48-3.11Zm-3.88,15.16c-.28,6.48-4.87,3.6-8.72,6.4-2.65,1.93-1.65,4.16.15,5.92.9.89,1.77,1.8,2.54,2.81,1,1.32,2.46,3.05,3.63,3.79,1.04.65,1.7,1.78,1.76,3.01.16,3.15-.19,6.7-.57,9.6-.7,5.26-9.13-4.41-10.4-5.91-.34-.56-.72-1.4-.89-2.21-.33-1.52-1.76-2.55-3.31-2.51-1.13.03-2.26.36-3.05,1-.32.26-.48.67-.43,1.08.34,2.92,1.27,5.74,1.25,8.74,0,.89.09,1.77.27,2.64.33,1.61-1.1,2.21-2.78,2.3-1.81.1-3.38-1.18-3.63-2.98,0-.02,0-.05,0-.07-.2-1.56-.47-3.12-1.03-4.59-1.07-2.8-.71-6.17-.96-9.28.67-8.43.97-16.44.46-24.81-.19-3.04-.14-6.09.07-9.13.44-6.14,1.1-12.56,1.09-18.59-.04-5.09.68-10.4,1.13-15.48.08-6.53,3.52-8.26,8.95-7.43.92.14,1.61.9,1.72,1.82,1.28,11.16-3.73,23.08-3.23,34.58.08,1.85-.02,3.7-.18,5.55-.07.74-.14,1.48-.22,2.22-.27,2.43.07,4.88.98,7.14s1.85,4.33,4.51,2.88c1.75-2.34,5.13-3.1,7.57-4.58,5.41-3.56,3.27,2.92,3.34,6.09Z"/>
  <path class="cls-1" d="m232.36,97.13c-.42-4.55-1.5-9.42-4.24-13.06-1.63-2.16-4.6-3.19-6.87-3.58-4.06-.68-9.13-1.47-9.69,2.68-.26,1.91,1.86,3.27,3.51,2.28.87-.52,1.78-1.12,2.8-1.12,5.56-.03,8.39,5.96,10.05,11.43,4.48,14.75-4.45,38.49-22.6,34.83-6.52-1.95-13.41-5.23-14.68-13.38-1.14-7.36-.38-15.23,2.48-22.09,1.49-3.57,3.94-6.7,7.02-9.05,1.25-.95,2.55-1.65,4.06-1.36,1.11.21,2.27-.14,2.88-1.09,2.45-3.77-6.53-6.5-12.76,2.11-7.72,8.85-9.73,21.24-8.26,32.83.73,5.73,4.14,10.73,9.22,13.48,2.79,1.51,5.8,2.85,8.6,3.23,10.92,1.49,19.27-4.69,24.53-11.53,6.25-6.48,4.69-18.2,3.94-26.63Z"/>
  <path class="cls-1" d="m202.7,109.02c.2-4.3,2.89-6.29,5.26-7.33,1.09-.48,2.43-.39,2.5-1.58.07-1.06.15-2.82-.94-2.65-1.18-.18-1.2-1.41-2.38-1.24-7.18.98-12.28,8.18-8.52,17.85,1.29,3.32,3.98,6.02,7.49,6.63,2.42.42,4.97-.05,7.07-1.59,1.28-.92,2.37-.26,3.67-2.92,1.87-3.82,5.4-11.56,3.14-15.15-.46-1.81-4.8-.57-4.01,1.19,1.53,3.98-1.81,9.51-2.87,11.63-1.07,2.11-2.74,3.21-5.61,2.97s-4.78-3.23-4.8-7.81Z"/>
</svg>