<?xml version="1.0" encoding="UTF-8"?>
<svg id="Layer_1" data-name="Layer 1" xmlns="http://www.w3.org/2000/svg" viewBox="0 0 360 288">
  <defs>
    <style>
      .cls-1 {
        fill: #0080a6;
        stroke: #0480a6;
      }

      .cls-1, .cls-2 {
        stroke-width: .15px;
      }

      .cls-1, .cls-2, .cls-3 {
        stroke-miterlimit: 10;
      }

      .cls-2, .cls-3 {
        fill: #231f20;
        stroke: #231f20;
      }

      .cls-3 {
        stroke-width: .17px;
      }
    </style>
  </defs>
  <polygon class="cls-1" points="136.33 182.71 162.43 182.23 174.48 190.22 171.61 207.43 168.08 219.96 180.76 241.24 189.83 250.74 204.74 226.22 210.48 208.74 201.57 199.09 218.04 182.47 230.57 182.47 235.78 250.74 208.82 260.39 139.78 257 131.17 220.22 136.33 182.71"/>
  <path class="cls-3" d="m153.89,135.51c-.9.15-1.87.32-2.83.52-3.91.81-6.76,4.49-6.13,8.43.3,1.85,1.22,3.25,2.68,4.35,4.22,3.17,10.25,1.27,12.3-3.6,1.25-2.97,1.31-4.87.53-6.49-1.16-2.42-3.91-3.66-6.55-3.22Z"/>
  <path class="cls-2" d="m195.2,140.35c-1.97-3.4-.53-7.87,3.15-9.25.03-.01.06-.02.09-.03,1.88-.65,5.08.25,7.58,1.91,2.86,1.9,3.62,5.75,1.89,8.71-.09.16-.18.31-.26.46-2.5,4.4-8.85,4.4-11.38.02l-1.05-1.82Z"/>
  <path class="cls-2" d="m127.07,242c.08,5.48,1.61,10.86,4.59,15.45.66,1.02,1.27,1.84,1.71,2.2,6.68,5.43,21.16,5.52,30.54,4.45,2.61-.3,5.22-.46,7.85-.51,8.32-.16,19.9.02,19.9.02l18.51.08s4.73-.2,5.48-.37c6.98-.49,12.08-1.08,16.99-2.74,1.99-.37,4.62-1.72,6.19-3,2.58-1.8,4.07-3.75,4.79-5.82s.58-4.37-.2-6.44c-2.73-7.19-5.75-20.25-5.75-20.25,0,0-6.44-28.66,7.18-15.27.83.82,1.59,1.71,2.3,2.63l1.74,2.26c.37.49.73.99,1.07,1.5,2.07,3.02,5.19,6.52,7.77,9.22.76.79,1.62,1.48,2.61,1.96,5.86,2.81,6.43-4.88,6.72-10.98.21-4.35-2.11-8.43-5.96-10.46l-.1-.05c-1.41-.74-2.76-1.58-4.06-2.52-4.26-3.07-9.32-6.58-14.05-8.83-1.77-.84-3.16-2.31-3.94-4.11-1.2-2.79-2.82-6.54-2.82-6.54-1.13-1.99-2.74-4.66-7.15-3.2-1.72.67-2.92,2.16-3.78,3.87-1.17,2.32-1.64,4.93-1.52,7.52.13,2.77.61,5.94,1.02,8.57,1.63,10.29,2.68,22.84,3.91,33.16,0,0,1.23,9.07,1.23,9.07.29,2.7,2.01,7.73-3.37,8.51-6.15.89-31.11,8.3-25.09-5.54,1.57-3.61,5.28-9.93,7.34-13.16,3.47-5.44,5.02-8.12,7.07-10.95,4.89-6.05.55-18.29-3.24-20.08-.94-.44-1.54-.97-1.87-1.67-.58-1.23-.06-2.67,1-3.52,3.47-2.8,6.44-8.21,9.22-12.37,1.16-1.73-.18-4.01-2.26-3.86-3.09.22-5.4,2.13-7.53,4.48-2.8,3.09-5.89,5.91-9.34,8.25-7.74,5.26-8.04,10.82.84,17.71.74.57,1.2,1.43,1.21,2.36.02,2.9-1.38,6.89-3.53,11.46-1.71,4.44-5.77,9.84-8.57,14.24-1,1.58-3.28,1.67-4.35.14-1.5-2.15-2.74-5.44-3.25-6.29-2.36-3.96-1.31-1.93-3.12-5.29-1.26-2.36-8.48-10.67-7.81-13.26.58-2.26,2.05-3.18,5.88-7.51,7.32-8.28.7-13.83-2.51-18.93-1.35-2.14-3.11-4.01-5.27-5.32-2.34-1.41-5.05-2.67-7.47-3.08-1.46-.25-2.75.78-2.9,2.25-.57,5.38.81,11.38,5.07,14.79,1.69,1.35,2.55,3.56,1.9,5.63-1.31,4.2-6.61,2.59-8,13.16-.39,2.96.74,5.92,2.97,7.9,8.06,7.14,16.39,16.7,17.95,27.25.18,1.22-.81,2.3-2.04,2.29-10.22-.03-25.02,2.87-34.1-1.68-2.24-1.12-3.52-3.5-3.53-6.01-.02-5.8-1.69-12.45-1.83-18.97-.12-5.58,1.19-9.81.51-15.67-.2-1.71-.32-3.42-.27-5.14l.07-2.41c.02-.76.09-1.51.14-2.27.24-3.39,1.22-6.63,2.9-9.57,2.31-4.04,2.52-9.2-.5-15.64-1.64-3.49-5.63-3.43-9.5-2.95-2.38.3-4.21,2.25-4.34,4.64-.5,9.05-1.37,13.13-12.43,18.22-3.87,1.78-9.55,5.74-12.75,7.58-2.72,1.56-9.64,6.98-8.64,11.07.87,6.92,6.24,12.79,12.35,8.63s18.1-22.27,19.48-12.41l.32,4.33.4,27.76Z"/>
  <path class="cls-2" d="m90.11,137.01c-3.41,2.27-7.95,3.31-9.12,6.78-.54,1.61-.08,3.38,1.05,4.64,6.5,7.25,14.2,14.1,23.73,16.52,2.12.54,3.66,2.44,3.63,4.62,0,.1,0,.19,0,.29-.18,4.15-3.85,7.32-7.97,6.87-.06,0-.13-.01-.19-.02-4.9-.58-9.43-2.9-12.97-6.33-7.04-6.82-14.79-13.79-20.11-21.85-.61-.92-1.11-1.9-1.6-2.89-1.92-3.81-3.48-3.47-5.29-1.45-2.63,2.92-6.51,4.39-10.43,4.14h-.12c-2.34-.16-4.55-1.19-6.09-2.95-2.29-2.6-3.74-5.98-3.48-14.02.13-4.1.82-9.13,2-13.12l2.84-9.52c.46-1.87,1.04-3.7,1.78-5.48.82-1.99,1.88-4.6,2.4-6.06.46-1.29,1.01-2.54,1.65-3.76,1.96-3.73,6.4-11.98,9.34-16.04,1.56-2.15,4.38-3,6.86-2.03.69.27,1.4.59,2.06.97,2.13,1.21,2.84,3.96,1.63,6.09-2.76,4.88-7.15,6.64-11.02,13.87s-8.22,17.41-10.63,27.91c-.69,3-4.3,14.87,3.6,11.94,4.75-1.76,4.32-1.62,10.1-10.28,6.03-9.02,10.71-25.84,13.24-39.52.3-1.64.72-3.25,1.39-4.78.27-.62.57-1.23.9-1.81.18-.32.37-.66.56-1,1.49-2.72,4.78-3.91,7.66-2.75,5.68,2.28,9.48,4.7,3.36,13.49-6.51,9.34-10.53,19.46-11.45,33.92-.57,8.97,2.75,7.97,6.21,5.69,2.74-1.8,5.01-4.24,6.65-7.07,9.22-15.83,5.28-22.07,9.96-34.61,2.02-5.41,4.95-13.15,11.62-8.47,2.83,1.94,4.32,5.18,3.13,8.28-.47,1.23-.97,2.44-1.33,3.71-.48,1.72-1.07,3.99-1.38,5.8-.93,5.52.29,11.27,3.65,15.75,3.81,5.08,9.33,7.25,13.9-.91,3.87-7.2,5.27-15.04,3.74-23.61-.37-2.1.39-4.32,2.09-5.6.16-.12.32-.23.49-.33.35-.21.83-.32,1.32-.36,1.06-.11,2.12.09,3.11.48,2.81,1.13,6.31,2.7,7.87,5.14,1.58,2.24,1.3,5.32,1.05,8.43-.43,5.19,1.78,10.34,6.03,13.33.35.25.69.46,1.02.63,3.96,2,8.81.18,10.72-3.83,1.72-3.61,3.88-7.05,8.53-6.61,3.32.06,3.53,2.63,4.05,5.22.3,1.65.87,4.85.12,6.48-.38,1.33-1.59,2.12-2.96,2.69-2.18.91-4.22,2.16-5.84,3.88-2.37,2.52-5.65,4.18-9.67,4.63-4.85.54-15.15-.83-18.66-6.18-.9-1.37-2.92-1.32-3.67.15-1.08,2.11-2.21,4.34-3.58,6.39-3.3,4.96-9.26,7.5-15.12,6.43s-10.94-4.02-13.73-8.88c-1.02-1.78-1.41-3.83-1.59-5.88-.08-.99-.57-1.47-1.46-1.47-1.06,0-1.96.78-2.29,1.79-.52,1.59-1.35,3.91-1.88,5.37-.23.64-.42,1.29-.61,1.94-1.44,5.97-5.11,11-10.81,15.19Z"/>
  <path class="cls-2" d="m138.43,50.01c3.22.61,6.73,1.11,9.86.69,2.23-.3,4.26-1.37,6.02-2.77,1.18-.94,2.84-1.77,4.43-2.29s3.18-1.23,4.75-1.91c2.88-1.25,6.44-1,9.7-.72,2.68.23,5.31.81,7.86,1.68.21.07.41.14.62.21,2.59.84,5.04,2.11,7.14,3.84,2.82,2.31,5.79,2.93,8.63,1.38s4.28-4.73,3.91-7.91c-.02-.15-.04-.31-.07-.48-.55-3.03-2.26-5.74-4.63-7.71-.09-.08-.19-.15-.28-.23-1.74-1.4-3.95-2.09-6.19-2.07-9.53.08-20.11-3.62-29.44.11-1.79.53-3.93,1.37-6.05,2.25-2.92,1.22-5.98,2.03-9.07,2.66-3.95.81-7.97,3.22-10.16,6.55-1.72,2.62-.11,6.14,2.96,6.72Z"/>
  <path class="cls-2" d="m132.48,62.56c3.26-6.11,2.42-8.95-4.23-10.22-3.24-.62-6.39-1.63-9.39-3-5.55-2.53-13.28-1.58-19.38-1.5-1.41.02-2.81.1-4.2.24-.58.06-1.18.11-1.8.16-6.69.54-13.16,2.66-18.88,6.17-1.63,1-3.24,2.05-4.62,3.18-2.86,2.34-2.42,6.96.86,8.65.04.02.08.04.12.06,2.73,1.36,5.98,1.11,8.68-.32.43-.23.88-.46,1.33-.68,3.93-1.93,8.25-2.85,12.62-2.99,1.28-.04,2.67-.2,4.02-.45,6.7-1.25,13.64-.36,19.88,2.39,1.81.8,3.61,1.56,5.43,2.13,3.69,1.16,7.73-.42,9.55-3.83Z"/>
  <path class="cls-2" d="m251.83,182.47c5.22,0,8.32-4.25,11.87-7.28,3.33-2.84,14.72-13.61,17.58-23.02.34-1.12,1.44-1.84,2.58-1.61,5.6,1.13,7.4,5.35,12.72.55,1.3-1.17,3.11-1.58,4.8-1.14,11.45,2.94,17.73-6.49,20.23-17.31,1.66-7.21,1.4-14.72-.41-21.89-4.24-16.81-5.75-37.16-20.46-47.9-4.6-3.29-10.28-6.35-16.14-4.27-2.12.36-3.19-.64-3.89-2.05-1.2-2.45-2.95-4.58-5.29-5.98-18.02-10.88-31.91-17.57-52.37-8.47-2.93,1.31-5.17,3.88-5.97,6.99,0,.03-.01.05-.02.08-.51,2.05,1.09,4.02,3.2,4.01,5.29-.03,12.54-.34,17.69-1.69,2.76-.72,5.59-1.2,8.44-1.21,7.87-.03,11.03,2.55,14.91,6.33,5.6,5.45,12.21,9.8,19.52,12.54,2.63.98,5.27,1.77,7.71,2.08.68.09,1.34.24,1.95.55,1.88.94,3.84,2.21,5.63,3.71,4.37,3.67,6.53,9.32,6.1,15.01-.59,7.92-1.63,16.33-4.35,26.12-9.68,34.83-13.54,7.31-14.38-8.02-.32-5.84-8.51-9.68-10.87-1.06-1.59,5.81-2.45,31.03-9.66,21.94-4.87-6.13-6.63-18.02-.89-25.48,4.65-6.05-9.82-9.19-12.94-1.38-.41,1.03-.52,2.15-.45,3.26.5,8.24,2.05,20.36-6.4,23.76-1.87.76-4.08,0-5.05-1.77-2.66-4.85-2.13-12.03-.5-16.73,1.96-5.62,2.78-8.03,1.05-10.8-4.57-7.3-9.36-2.7-15.42-2.07-7.44.78-12.85,14.24-18.83,10.16-1.31-.89-2.11-2.37-2.34-3.94-.3-2.05-.92-5.39-1.9-7.19-.67-1.23-2.66-1.99-4.67-1.98-2.58,0-4.68,2.08-4.74,4.66s-.06,6.56.38,10.35c.64,5.41,5.2,9.54,10.65,9.57,3.43.02,9.77-1.33,9.77-1.33,3.74-1.26,7.1-3.35,9.92-5.81,1.59-1.39,4.09-.46,4.29,1.65.15,1.53.38,5.64.47,6.12.28,1.92.65,4.38,1.05,6.64.58,3.35,1.98,6.55,4.28,9.05,5.87,6.39,14.98,6.67,22.08-.02,1.04-.98,2.68-.9,3.6.19,1.19,1.4,2.15,3.45,2.7,4.41,3.14,4.48,17.3-1.7,15.47,2.68l-.29.55c-2.74,5.23-6.18,10.06-10.3,14.28-.82.83-1.67,1.68-2.54,2.51s-1.82,1.61-2.81,2.31l-7.45,5.32c-1.64,1.17-3.16,2.5-4.46,4.04-2.2,2.6-3.74,5.65-.91,7.8,2.02,1.67,6.07,2.21,6.07,2.21Zm61.7-47.03c-3.61,10.57-10.16,5.16-9.98.54.22-5.61,1.11-22.86,3.91-30.67.83-2.32,4.09-2.33,4.96-.02,1.4,3.71,2.45,26.44,1.1,30.15Z"/>
</svg>